<?xml version="1.0" standalone="no"?>
<!DOCTYPE svg PUBLIC "-//W3C//DTD SVG 20010904//EN"
 "http://www.w3.org/TR/2001/REC-SVG-20010904/DTD/svg10.dtd">
<svg version="1.0" xmlns="http://www.w3.org/2000/svg"
 width="626.000000pt" height="626.000000pt" viewBox="0 0 626.000000 626.000000"
 preserveAspectRatio="xMidYMid meet">

<g transform="translate(0.000000,626.000000) scale(0.100000,-0.100000)"
fill="#000000" stroke="none">
<path d="M2149 4215 c-47 -8 -123 -23 -169 -35 -86 -22 -273 -90 -267 -97 2
-2 46 6 99 16 241 50 578 82 684 66 42 -6 46 -9 30 -19 -113 -68 -246 -279
-331 -525 -41 -119 -74 -247 -115 -441 -31 -146 -35 -153 -105 -171 -147 -41
-592 -35 -682 8 -41 19 -41 26 -2 178 94 367 237 698 316 731 32 14 383 83
431 85 15 1 20 3 10 6 -22 6 -444 -36 -472 -47 -57 -21 -143 -149 -209 -310
-76 -185 -207 -639 -194 -673 7 -18 132 -55 249 -74 124 -20 410 -12 557 16
57 11 107 24 111 28 4 4 19 64 34 133 77 359 186 671 290 834 79 123 192 206
283 206 67 0 353 -88 1411 -436 843 -277 845 -277 92 -3 -289 105 -637 234
-775 286 -490 186 -569 210 -783 238 -137 18 -376 18 -493 0z"/>
<path d="M2698 4006 c-85 -30 -124 -76 -183 -213 -138 -319 -277 -896 -266
-1105 1 -10 6 -18 12 -18 6 0 74 64 152 143 162 162 279 250 442 331 174 86
329 126 491 126 134 0 579 -75 1304 -219 417 -84 488 -97 480 -88 -18 19 -989
235 -1354 302 -345 63 -452 72 -589 52 -259 -39 -519 -169 -752 -376 -49 -44
-91 -76 -93 -71 -6 17 69 362 111 510 47 161 131 399 165 467 33 64 93 103
159 103 48 0 254 -46 446 -99 82 -23 151 -41 153 -41 2 0 4 -37 4 -82 0 -46 5
-90 10 -98 7 -10 10 14 10 78 0 84 2 93 18 88 42 -12 621 -187 655 -197 37
-12 37 -13 38 -68 0 -31 4 -74 8 -96 7 -33 9 -23 10 54 1 70 4 92 14 88 18 -7
527 -168 565 -179 l32 -9 1 -77 c0 -87 17 -73 18 16 1 28 2 52 4 52 2 0 37
-11 77 -25 40 -14 75 -23 77 -22 9 10 -1792 620 -1956 663 -104 27 -205 31
-263 10z"/>
<path d="M2064 3893 l-52 -4 -22 -52 c-25 -56 -90 -245 -90 -259 0 -5 28 -8
61 -6 78 4 94 23 111 131 9 62 9 85 -1 113 -7 20 -11 38 -8 40 2 2 49 13 103
23 l99 19 -75 -1 c-41 0 -98 -2 -126 -4z"/>
<path d="M1174 3840 c-16 -6 -33 -38 -62 -112 -40 -103 -62 -172 -62 -195 0
-9 17 -13 54 -13 76 0 98 27 115 142 11 76 11 89 -3 117 -9 17 -15 31 -14 32
2 0 46 8 98 18 l95 19 -100 0 c-55 1 -110 -3 -121 -8z"/>
<path d="M4840 3450 c8 -5 22 -9 30 -9 10 0 8 3 -5 9 -27 12 -43 12 -25 0z"/>
<path d="M3316 3109 c-41 -10 -174 -73 -191 -91 -7 -8 -4 -9 10 -3 65 24 162
47 242 56 105 13 129 10 783 -71 217 -27 418 -52 445 -54 l50 -5 -50 9 c-160
31 -1139 170 -1189 169 -34 -1 -79 -5 -100 -10z"/>
<path d="M4688 2933 c6 -2 18 -2 25 0 6 3 1 5 -13 5 -14 0 -19 -2 -12 -5z"/>
<path d="M1073 2753 c-13 -56 -18 -117 -18 -218 1 -121 4 -148 23 -195 41
-104 94 -139 227 -147 77 -5 141 -22 85 -23 -37 0 -171 -39 -199 -57 -22 -14
-23 -17 -8 -28 27 -20 164 -45 297 -55 158 -11 993 -5 1205 9 666 45 1038 82
2320 229 l150 17 -147 3 c-82 1 -148 6 -148 10 0 4 6 14 13 23 10 13 45 19
162 28 83 7 156 14 163 16 8 3 11 27 10 77 -1 48 -3 58 -5 28 -7 -97 6 -90
-161 -90 l-148 0 -12 78 c-6 42 -14 87 -18 100 -6 22 -5 22 77 22 124 0 83 16
-60 24 l-123 7 -33 -35 c-34 -36 -55 -98 -55 -161 0 -20 -6 -37 -12 -39 -7 -3
-267 -11 -578 -20 -311 -9 -626 -19 -701 -22 l-136 -6 -6 84 c-6 89 -25 150
-64 208 l-23 35 29 6 c16 3 86 12 155 19 69 8 125 15 123 16 -7 7 -467 26
-491 20 -41 -10 -111 -80 -139 -139 -27 -58 -53 -167 -62 -269 -6 -57 -9 -67
-28 -72 -12 -2 -238 -8 -502 -11 -498 -7 -782 2 -881 29 -81 21 -154 66 -190
116 -32 43 -73 164 -61 176 3 4 42 0 86 -9 45 -8 81 -12 81 -8 0 3 -13 29 -28
56 -28 52 -28 52 -131 71 -23 5 -23 6 -17 90 4 46 5 84 2 84 -3 0 -13 -35 -23
-77z m1986 -178 c108 -91 74 -375 -45 -375 -62 0 -105 67 -112 176 -8 123 42
219 115 223 6 1 25 -10 42 -24z m1758 -30 c52 -36 49 -176 -4 -230 -32 -32
-48 -32 -78 1 -46 50 -41 169 10 220 28 28 42 30 72 9z"/>
<path d="M2953 2513 c-27 -40 -30 -186 -6 -233 41 -79 93 -18 93 107 0 128
-44 191 -87 126z"/>
<path d="M4738 2498 c-7 -13 -12 -51 -13 -85 0 -120 61 -116 72 5 8 87 -28
136 -59 80z"/>
<path d="M1955 2619 c-60 -5 -120 -11 -133 -14 -21 -5 -87 -83 -78 -92 5 -5
303 25 329 33 9 3 26 23 37 45 l20 39 -32 -1 c-18 -1 -82 -6 -143 -10z"/>
<path d="M1980 2376 c0 -2 22 -18 48 -35 41 -26 59 -31 109 -31 63 0 75 7 87
48 l7 22 -125 0 c-69 0 -126 -2 -126 -4z"/>
</g>
</svg>
